<svg width="82" height="82" viewBox="0 0 82 82" fill="none" xmlns="http://www.w3.org/2000/svg"><circle cx="41" cy="41" r="41" fill="#00BBE4"/><mask id="research-2_svg__a" style="mask-type:alpha" maskUnits="userSpaceOnUse" x="0" y="0" width="82" height="82"><circle cx="41" cy="41" r="41" fill="#00BBE4"/></mask><g mask="url(#research-2_svg__a)"><path d="M41.326 10.527c-16.45.096-29.754 13.46-29.754 29.932 0 16.533 13.401 29.935 29.934 29.935 16.532 0 29.933-13.404 29.933-29.935H42.326a1 1 0 0 1-1-1V10.527z" fill="url(#research-2_svg__paint0_linear)"/><path d="m37.043 82.621.23-.002V45.106a1 1 0 0 0-1-1H-1.242c.002 21.27 17.14 38.515 38.285 38.515z" fill="url(#research-2_svg__paint1_linear)"/></g><defs><linearGradient id="research-2_svg__paint0_linear" x1="26.686" y1="13.563" x2="45.911" y2="75.832" gradientUnits="userSpaceOnUse"><stop stop-color="#fff"/><stop offset="1" stop-color="#fff" stop-opacity="0.25"/></linearGradient><linearGradient id="research-2_svg__paint1_linear" x1="18.015" y1="97.546" x2="32.244" y2="40.321" gradientUnits="userSpaceOnUse"><stop stop-color="#fff"/><stop offset="1" stop-color="#fff" stop-opacity="0.12"/></linearGradient></defs></svg>