<svg width="82" height="82" viewBox="0 0 82 82" fill="none" xmlns="http://www.w3.org/2000/svg"><circle cx="41" cy="41" r="41" fill="#FF326F"/><mask id="marketing-2_svg__a" style="mask-type:alpha" maskUnits="userSpaceOnUse" x="0" y="0" width="82" height="82"><circle cx="41" cy="41" r="41" fill="#FF326F"/></mask><g mask="url(#marketing-2_svg__a)"><path d="M43.322 30.18v20.86c5.486 0 9.934-4.67 9.934-10.43 0-5.762-4.448-10.43-9.934-10.43z" fill="url(#marketing-2_svg__paint0_linear)"/><path d="M43.38 19.836v41.021c11.035 0 19.984-9.184 19.984-20.51 0-11.33-8.95-20.51-19.985-20.51z" fill="url(#marketing-2_svg__paint1_linear)"/><path d="M42.014 9.469c-9.47 6.603-26.878 16.737-45.385 16.737v28.93c18.507 0 35.918 10.012 45.385 16.615.548.38 1.304-.005 1.304-.663V10.131c0-.657-.756-1.043-1.304-.662z" fill="url(#marketing-2_svg__paint2_linear)"/></g><defs><linearGradient id="marketing-2_svg__paint0_linear" x1="48.289" y1="32.663" x2="35.375" y2="51.041" gradientUnits="userSpaceOnUse"><stop stop-color="#fff"/><stop offset="1" stop-color="#fff" stop-opacity="0"/></linearGradient><linearGradient id="marketing-2_svg__paint1_linear" x1="73.356" y1="-5.948" x2="38.376" y2="63.353" gradientUnits="userSpaceOnUse"><stop stop-color="#fff"/><stop offset="1" stop-color="#fff" stop-opacity="0"/></linearGradient><linearGradient id="marketing-2_svg__paint2_linear" x1="19.477" y1="22.232" x2="11.193" y2="86.823" gradientUnits="userSpaceOnUse"><stop stop-color="#fff"/><stop offset="1" stop-color="#fff" stop-opacity="0"/></linearGradient></defs></svg>