<svg width="82" height="82" viewBox="0 0 82 82" fill="none" xmlns="http://www.w3.org/2000/svg"><circle cx="41" cy="41" r="41" fill="#C343FF"/><mask id="purchase-2_svg__a" style="mask-type:alpha" maskUnits="userSpaceOnUse" x="0" y="0" width="82" height="82"><circle cx="41" cy="41" r="41" fill="#C343FF"/></mask><g mask="url(#purchase-2_svg__a)"><path d="M65.836 92.73h-71.3c-.758 0-1.37-.535-1.37-1.193l1.746-65.83h70.551l1.746 65.83c-.004.661-.615 1.194-1.373 1.194z" fill="url(#purchase-2_svg__paint0_linear)"/><path d="M44.388 36.392c1.4 0 2.536-1.088 2.536-2.429 0-1.34-1.135-2.428-2.536-2.428-1.4 0-2.535 1.087-2.535 2.428s1.135 2.429 2.535 2.429zm-28.4 0c1.4 0 2.535-1.088 2.535-2.429 0-1.34-1.135-2.428-2.535-2.428-1.4 0-2.536 1.087-2.536 2.428s1.135 2.429 2.536 2.429z" fill="#C343FF"/><path d="M30.114 63.75c-8.555 0-15.514-7.47-15.514-16.655V35.85c0-.629.532-1.138 1.189-1.138s1.189.51 1.189 1.138v11.245c0 7.929 5.892 14.377 13.136 14.377 7.241 0 13.136-6.448 13.136-14.377V35.85c0-.629.532-1.138 1.189-1.138s1.189.51 1.189 1.138v11.245c0 9.184-6.959 16.654-15.514 16.654z" fill="url(#purchase-2_svg__paint1_linear)"/><path d="m57.694 19.879 7.803 5.828H-5.09l7.771-5.828h55.013z" fill="url(#purchase-2_svg__paint2_linear)"/></g><defs><linearGradient id="purchase-2_svg__paint0_linear" x1="56.559" y1="26.678" x2="31.485" y2="105.736" gradientUnits="userSpaceOnUse"><stop stop-color="#fff"/><stop offset="1" stop-color="#fff" stop-opacity="0.16"/></linearGradient><linearGradient id="purchase-2_svg__paint1_linear" x1="30.695" y1="35.906" x2="31.16" y2="69.904" gradientUnits="userSpaceOnUse"><stop stop-color="#fff"/><stop offset="0.656" stop-color="#fff"/></linearGradient><linearGradient id="purchase-2_svg__paint2_linear" x1="-15.176" y1="10.89" x2="57.118" y2="46.925" gradientUnits="userSpaceOnUse"><stop stop-color="#fff"/><stop offset="1" stop-color="#fff" stop-opacity="0.15"/></linearGradient></defs></svg>