<svg width="82" height="82" viewBox="0 0 82 82" fill="none" xmlns="http://www.w3.org/2000/svg"><circle cx="41" cy="41" r="41" fill="#00CA9A"/><mask id="investors-2_svg__a" style="mask-type:alpha" maskUnits="userSpaceOnUse" x="0" y="0" width="82" height="82"><circle cx="41" cy="41" r="41" fill="#00CA9A"/></mask><g mask="url(#investors-2_svg__a)"><path d="M21.515 29.758H18.7V19.145c0-.332-.286-.6-.64-.6-.354 0-.64.268-.64.6v10.613h-2.816c-.636 0-1.152.485-1.152 1.082v28.674c0 .597.516 1.082 1.152 1.082h2.816v7.81c0 .332.286.6.64.6.354 0 .64-.268.64-.6v-7.81h2.816c.636 0 1.153-.485 1.153-1.081V30.84c0-.597-.517-1.082-1.152-1.082z" fill="url(#investors-2_svg__paint0_linear)"/><path d="M5.29 43.375H2.32v-3.404c0-.333-.286-.6-.64-.6-.354 0-.64.267-.64.6v3.404h-2.774c-.606 0-1.096.46-1.096 1.03v20.364c0 .569.49 1.03 1.096 1.03H1.04v12.214c0 .332.286.6.64.6.354 0 .64-.267.64-.6v-12.21h2.97c.606 0 1.096-.461 1.096-1.03V44.404c0-.569-.49-1.029-1.096-1.029z" fill="url(#investors-2_svg__paint1_linear)"/><path d="M68.953 21.73h-2.979v-5.406c0-.333-.285-.601-.64-.601-.354 0-.64.268-.64.6v5.407h-2.786c-.602 0-1.088.457-1.088 1.021v9.572c0 .565.486 1.021 1.088 1.021h2.786v10.213c0 .332.286.6.64.6.355 0 .64-.268.64-.6V33.344h2.979c.601 0 1.088-.456 1.088-1.02v-9.572c0-.565-.487-1.022-1.088-1.022z" fill="url(#investors-2_svg__paint2_linear)"/><path d="M37.8 45.534h-2.816v-7.208c0-.333-.286-.601-.64-.601-.355 0-.64.268-.64.6v7.21h-2.817c-.635 0-1.152.484-1.152 1.08v15.86c0 .597.517 1.081 1.152 1.081h2.817v14.818c0 .333.285.601.64.601.354 0 .64-.268.64-.6v-14.82H37.8c.636 0 1.152-.484 1.152-1.081v-15.86c0-.596-.516-1.08-1.152-1.08z" fill="url(#investors-2_svg__paint3_linear)"/><path d="M54.15 36.567h-2.982v-15.42c0-.332-.286-.6-.64-.6-.354 0-.64.268-.64.6v15.42h-2.79c-.598 0-1.08.452-1.08 1.013v21.999c0 .56.482 1.013 1.08 1.013h2.79v2.603c0 .332.286.6.64.6.354 0 .64-.268.64-.6v-2.6h2.983c.597 0 1.08-.452 1.08-1.012V37.58c.003-.56-.483-1.013-1.08-1.013z" fill="url(#investors-2_svg__paint4_linear)"/></g><defs><linearGradient id="investors-2_svg__paint0_linear" x1="18.015" y1="28.265" x2="18.015" y2="77.651" gradientUnits="userSpaceOnUse"><stop stop-color="#fff"/><stop offset="1" stop-color="#fff" stop-opacity="0"/></linearGradient><linearGradient id="investors-2_svg__paint1_linear" x1="1.778" y1="39.37" x2="1.778" y2="78.614" gradientUnits="userSpaceOnUse"><stop stop-color="#fff"/><stop offset="1" stop-color="#fff" stop-opacity="0"/></linearGradient><linearGradient id="investors-2_svg__paint2_linear" x1="65.43" y1="15.723" x2="65.227" y2="87.901" gradientUnits="userSpaceOnUse"><stop stop-color="#fff"/><stop offset="1" stop-color="#fff" stop-opacity="0"/></linearGradient><linearGradient id="investors-2_svg__paint3_linear" x1="34.344" y1="37.725" x2="34.166" y2="100.326" gradientUnits="userSpaceOnUse"><stop stop-color="#fff"/><stop offset="1" stop-color="#fff" stop-opacity="0"/></linearGradient><linearGradient id="investors-2_svg__paint4_linear" x1="50.318" y1="30.439" x2="50.318" y2="91.318" gradientUnits="userSpaceOnUse"><stop stop-color="#fff"/><stop offset="1" stop-color="#fff" stop-opacity="0"/></linearGradient></defs></svg>