<svg width="82" height="82" viewBox="0 0 82 82" fill="none" xmlns="http://www.w3.org/2000/svg"><circle cx="41" cy="41" r="41" fill="#FFA800"/><mask id="sales-2_svg__a" style="mask-type:alpha" maskUnits="userSpaceOnUse" x="0" y="0" width="82" height="82"><circle cx="41" cy="41" r="41" fill="#FFB800"/></mask><g mask="url(#sales-2_svg__a)"><path d="M68.476 50.245 30.522 55.14a.959.959 0 0 1-.242 0l-37.427-4.896c-.961 0-1.74-.763-1.74-1.706l.965-23.237c0-.502.414-.907.926-.907h75.322c.512 0 .925.405.925.907l.965 23.237c0 .943-.779 1.706-1.74 1.706z" fill="url(#sales-2_svg__paint0_linear)"/><path d="M46.82 24.653h-2.843v-6.506c0-.903-.734-1.637-1.636-1.637H19.505c-.902 0-1.636.734-1.636 1.637v6.506h-2.844v-6.506a4.484 4.484 0 0 1 4.48-4.48H42.34a4.485 4.485 0 0 1 4.48 4.48v6.506z" fill="url(#sales-2_svg__paint1_linear)"/><path d="m68.476 50.245-37.811 4.878-.14.018a.954.954 0 0 1-.245 0l-37.426-4.896c-.357 0-.688-.106-.964-.287V80a2 2 0 0 0 2 2h73.55a2 2 0 0 0 2-2V49.958a1.76 1.76 0 0 1-.964.287z" fill="url(#sales-2_svg__paint2_linear)"/><path d="M24.83 49.408h13.066c.457 0 .825.374.825.831v6.993c0 .46-.371.831-.825.831H24.831a.828.828 0 0 1-.825-.831v-6.993a.83.83 0 0 1 .825-.831z" fill="url(#sales-2_svg__paint3_linear)"/></g><defs><linearGradient id="sales-2_svg__paint0_linear" x1="30.665" y1="24.395" x2="38.287" y2="96.328" gradientUnits="userSpaceOnUse"><stop stop-color="#fff"/><stop offset="1" stop-color="#fff" stop-opacity="0.17"/></linearGradient><linearGradient id="sales-2_svg__paint1_linear" x1="30.93" y1="15.831" x2="30.923" y2="24.653" gradientUnits="userSpaceOnUse"><stop stop-color="#fff"/><stop offset="1" stop-color="#fff" stop-opacity="0.42"/></linearGradient><linearGradient id="sales-2_svg__paint2_linear" x1="26.311" y1="91.838" x2="30.439" y2="40.379" gradientUnits="userSpaceOnUse"><stop stop-color="#fff"/><stop offset="0.125" stop-color="#fff"/><stop offset="1" stop-color="#fff" stop-opacity="0.28"/></linearGradient><linearGradient id="sales-2_svg__paint3_linear" x1="32.58" y1="56.158" x2="32.58" y2="45.551" gradientUnits="userSpaceOnUse"><stop stop-color="#fff"/><stop offset="1" stop-color="#fff" stop-opacity="0"/></linearGradient></defs></svg>