<svg xmlns="http://www.w3.org/2000/svg" width="40" height="40" fill="none" viewBox="0 0 40 40"><path stroke="#fff" stroke-opacity=".4" stroke-width="3" d="m27.5 27 8 10"/><path fill="url(#a)" d="M17 26c6.627 0 12-5.373 12-12S23.627 2 17 2 5 7.373 5 14s5.373 12 12 12z" opacity=".8"/><path stroke="url(#b)" stroke-linejoin="round" stroke-miterlimit="10" stroke-width="3" d="M21.14 29.87c6.047 0 10.95-4.902 10.95-10.95 0-6.047-4.903-10.95-10.95-10.95-6.048 0-10.95 4.903-10.95 10.95 0 6.048 4.902 10.95 10.95 10.95z"/><defs><linearGradient id="a" x1="5" x2="29.008" y1="14.004" y2="14.004" gradientUnits="userSpaceOnUse"><stop stop-color="#fff" stop-opacity=".6"/><stop offset="1" stop-color="#fff" stop-opacity="0"/></linearGradient><linearGradient id="b" x1="8.687" x2="33.583" y1="18.917" y2="18.917" gradientUnits="userSpaceOnUse"><stop stop-color="#fff"/><stop offset="1" stop-color="#fff" stop-opacity=".7"/></linearGradient></defs></svg>
