<svg xmlns="http://www.w3.org/2000/svg" width="40" height="40" fill="none" viewBox="0 0 40 40"><path stroke="url(#a)" stroke-miterlimit="10" stroke-width="4" d="M13 10h26"/><path stroke="url(#b)" stroke-miterlimit="10" stroke-width="4" d="M13 20h26"/><path stroke="url(#c)" stroke-miterlimit="10" stroke-width="4" d="M13 30h26"/><path fill="url(#d)" d="M4 13a3 3 0 1 0 0-6 3 3 0 0 0 0 6z"/><path fill="url(#e)" d="M4 23a3 3 0 1 0 0-6 3 3 0 0 0 0 6z"/><path fill="url(#f)" d="M4 33a3 3 0 1 0 0-6 3 3 0 0 0 0 6z"/><defs><linearGradient id="a" x1="13.062" x2="39" y1="10.27" y2="10.45" gradientUnits="userSpaceOnUse"><stop stop-color="#fff" stop-opacity=".52"/><stop offset="1" stop-color="#fff" stop-opacity="0"/></linearGradient><linearGradient id="b" x1="13.062" x2="39" y1="20.27" y2="20.45" gradientUnits="userSpaceOnUse"><stop stop-color="#fff" stop-opacity=".52"/><stop offset="1" stop-color="#fff" stop-opacity="0"/></linearGradient><linearGradient id="c" x1="13.062" x2="39" y1="30.27" y2="30.45" gradientUnits="userSpaceOnUse"><stop stop-color="#fff" stop-opacity=".52"/><stop offset="1" stop-color="#fff" stop-opacity="0"/></linearGradient><linearGradient id="d" x1="1" x2="6.991" y1="9.995" y2="9.995" gradientUnits="userSpaceOnUse"><stop stop-color="#fff"/><stop offset="1" stop-color="#fff" stop-opacity=".7"/></linearGradient><linearGradient id="e" x1="1" x2="6.991" y1="20.002" y2="20.002" gradientUnits="userSpaceOnUse"><stop stop-color="#fff"/><stop offset="1" stop-color="#fff" stop-opacity=".7"/></linearGradient><linearGradient id="f" x1="1" x2="6.991" y1="30" y2="30" gradientUnits="userSpaceOnUse"><stop stop-color="#fff"/><stop offset="1" stop-color="#fff" stop-opacity=".7"/></linearGradient></defs></svg>
