<svg xmlns="http://www.w3.org/2000/svg" width="40" height="40" fill="none" viewBox="0 0 40 40"><g clip-path="url(#a)"><path fill="url(#b)" d="M24.3 31.1H10c-1.1 0-2-.9-2-2V5c0-1.1.9-2 2-2h14.3c1.1 0 2 .9 2 2v24.1c0 1.1-.9 2-2 2z" opacity=".8"/><path fill="url(#c)" d="M29.2 8.1H14.9c-1.1 0-2 .9-2 2v24.1c0 1.1.9 2 2 2h14.3c1.1 0 2-.9 2-2v-24c0-1.2-.9-2.1-2-2.1zm-7.9 19.4c0 .6-.5 1.1-1.1 1.1h-2.6c-.6 0-1.1-.5-1.1-1.1v-2.6c0-.6.5-1.1 1.1-1.1h2.6c.6 0 1.1.5 1.1 1.1v2.6zm0-6.2c0 .6-.5 1.1-1.1 1.1h-2.6c-.6 0-1.1-.5-1.1-1.1v-2.6c0-.6.5-1.1 1.1-1.1h2.6c.6 0 1.1.5 1.1 1.1v2.6zm0-6.3c0 .6-.5 1.1-1.1 1.1h-2.6c-.6 0-1.1-.5-1.1-1.1v-2.6c0-.6.5-1.1 1.1-1.1h2.6c.6 0 1.1.5 1.1 1.1V15zm6.3 12.5c0 .6-.5 1.1-1.1 1.1h-2.6c-.6 0-1.1-.5-1.1-1.1v-2.6c0-.6.5-1.1 1.1-1.1h2.6c.6 0 1.1.5 1.1 1.1v2.6zm0-6.2c0 .6-.5 1.1-1.1 1.1h-2.6c-.6 0-1.1-.5-1.1-1.1v-2.6c0-.6.5-1.1 1.1-1.1h2.6c.6 0 1.1.5 1.1 1.1v2.6zm0-6.3c0 .6-.5 1.1-1.1 1.1h-2.6c-.6 0-1.1-.5-1.1-1.1v-2.6c0-.6.5-1.1 1.1-1.1h2.6c.6 0 1.1.5 1.1 1.1V15z" opacity=".85"/><path fill="url(#d)" d="M12.9 31.1v3.1c0 1.1.9 2 2 2h14.3c1.1 0 2-.9 2-2v-3.1H12.9z"/></g><defs><linearGradient id="b" x1="5.492" x2="28.812" y1="7.276" y2="26.843" gradientUnits="userSpaceOnUse"><stop stop-color="#fff" stop-opacity=".6"/><stop offset="1" stop-color="#fff" stop-opacity="0"/></linearGradient><linearGradient id="c" x1="30.061" x2="14.05" y1="8.322" y2="36.055" gradientUnits="userSpaceOnUse"><stop stop-color="#fff"/><stop offset="1" stop-color="#fff" stop-opacity=".6"/></linearGradient><linearGradient id="d" x1="22.055" x2="22.055" y1="36.248" y2="31.119" gradientUnits="userSpaceOnUse"><stop stop-color="#fff"/><stop offset="1" stop-color="#fff" stop-opacity=".7"/></linearGradient><clipPath id="a"><path fill="#fff" d="M8 3h23.2v33.2H8z"/></clipPath></defs></svg>
