<svg xmlns="http://www.w3.org/2000/svg" width="40" height="40" fill="none" viewBox="0 0 40 40"><path fill="url(#a)" d="M20.248 17.738 16.2 24.605 4.965 18.827V29.63l15.283 7.286V17.738z"/><path fill="url(#b)" d="m35.448 29.63-15.283 7.285v-19.26l3.635 7.117 11.648-6.029V29.63z"/><path fill="url(#c)" d="M35.448 10.37 20.248 3v14.739l15.2-7.37z" opacity=".6"/><path fill="url(#d)" d="m4.965 10.37 15.283 7.369V3L4.965 10.37z" opacity=".9"/><path fill="url(#e)" d="M23.8 24.857 39 17.069l-3.47-6.7-15.282 7.37 3.552 7.118z"/><path fill="url(#f)" d="M16.2 24.606 1 16.817l3.965-6.448 15.283 7.37-4.048 6.867z"/><defs><linearGradient id="a" x1="4.936" x2="20.518" y1="11.114" y2="36.037" gradientUnits="userSpaceOnUse"><stop stop-color="#fff"/><stop offset="1" stop-color="#fff" stop-opacity=".7"/></linearGradient><linearGradient id="b" x1="21.185" x2="33.117" y1="20.838" y2="33.151" gradientUnits="userSpaceOnUse"><stop stop-color="#fff"/><stop offset="1" stop-color="#fff" stop-opacity=".7"/></linearGradient><linearGradient id="c" x1="29.19" x2="24.918" y1="21.762" y2="-2.139" gradientUnits="userSpaceOnUse"><stop stop-color="#fff"/><stop offset="1" stop-color="#fff" stop-opacity="0"/></linearGradient><linearGradient id="d" x1="12.198" x2="14.75" y1="4.435" y2="18.71" gradientUnits="userSpaceOnUse"><stop stop-color="#fff" stop-opacity=".9"/><stop offset="1" stop-color="#fff" stop-opacity=".5"/></linearGradient><linearGradient id="e" x1="35.211" x2="9.271" y1="23.795" y2="-4.342" gradientUnits="userSpaceOnUse"><stop stop-color="#fff" stop-opacity="0"/><stop offset="1" stop-color="#fff"/></linearGradient><linearGradient id="f" x1="4.976" x2="31.17" y1="23.754" y2="-4.656" gradientUnits="userSpaceOnUse"><stop stop-color="#fff" stop-opacity="0"/><stop offset="1" stop-color="#fff"/></linearGradient></defs></svg>
