<svg xmlns="http://www.w3.org/2000/svg" width="40" height="40" fill="none" viewBox="0 0 40 40"><g clip-path="url(#a)"><path fill="url(#b)" d="M22.07 31.62H3.77c-.42 0-.77-.35-.77-.77V4.27c0-.42.35-.77.77-.77h18.3c.43 0 .77.35.77.77v26.58c0 .42-.34.77-.77.77z" opacity=".7"/><path fill="url(#c)" d="M26.57 35.9H8.28a.77.77 0 0 1-.77-.77V8.56c0-.43.35-.77.77-.77h18.3c.43 0 .77.35.77.77v26.58c0 .42-.35.76-.78.76z" opacity=".8"/><path fill="url(#d)" d="m34.47 14.28 2.31-2.13-3.12-3.39-2.37 2.18 3.18 3.34z"/><path fill="url(#e)" d="m29.81 12.29-10.63 9.8-1.27 4.27 4.4-.88 10.68-9.84-3.18-3.35z"/></g><defs><linearGradient id="b" x1="-.154" x2="25.995" y1="12.801" y2="22.318" gradientUnits="userSpaceOnUse"><stop stop-color="#fff"/><stop offset="1" stop-color="#fff" stop-opacity=".6"/></linearGradient><linearGradient id="c" x1="17.424" x2="17.424" y1="35.903" y2="7.784" gradientUnits="userSpaceOnUse"><stop stop-color="#fff" stop-opacity=".6"/><stop offset="1" stop-color="#fff" stop-opacity="0"/></linearGradient><linearGradient id="d" x1="31.285" x2="36.784" y1="11.52" y2="11.52" gradientUnits="userSpaceOnUse"><stop stop-color="#fff"/><stop offset="1" stop-color="#fff" stop-opacity=".7"/></linearGradient><linearGradient id="e" x1="28.635" x2="22.72" y1="11.864" y2="28.115" gradientUnits="userSpaceOnUse"><stop stop-color="#fff"/><stop offset="1" stop-color="#fff" stop-opacity=".7"/></linearGradient><clipPath id="a"><path fill="#fff" d="M3 3.5h33.78v32.4H3z"/></clipPath></defs></svg>
