<svg xmlns="http://www.w3.org/2000/svg" width="40" height="40" fill="none" viewBox="0 0 40 40"><g clip-path="url(#a)"><path fill="url(#b)" d="M18.32 25.64c6.252 0 11.32-5.068 11.32-11.32C29.64 8.068 24.572 3 18.32 3 12.068 3 7 8.068 7 14.32c0 6.252 5.068 11.32 11.32 11.32z"/><path stroke="url(#c)" stroke-linejoin="round" stroke-miterlimit="10" stroke-width="3" d="M18.67 28.5v5.41"/><path fill="url(#d)" d="m28.6 4.04-2.27 2.27c2.05 2.05 3.32 4.88 3.32 8 0 6.25-5.07 11.32-11.32 11.32-3.13 0-5.96-1.27-8-3.32L8.04 24.6c5.68 5.68 14.88 5.68 20.55 0 5.68-5.68 5.68-14.88.01-20.56z"/><path stroke="url(#e)" stroke-linejoin="round" stroke-miterlimit="10" stroke-width="3" d="M24.08 35.38H13.25"/></g><defs><linearGradient id="b" x1="7.68" x2="28.96" y1="18.192" y2="10.447" gradientUnits="userSpaceOnUse"><stop stop-color="#fff" stop-opacity=".6"/><stop offset="1" stop-color="#fff" stop-opacity="0"/></linearGradient><linearGradient id="c" x1="-nan" x2="-nan" y1="-nan" y2="-nan" gradientUnits="userSpaceOnUse"><stop stop-color="#fff"/><stop offset="1" stop-color="#fff" stop-opacity=".7"/></linearGradient><linearGradient id="d" x1="8.043" x2="32.854" y1="16.447" y2="16.447" gradientUnits="userSpaceOnUse"><stop stop-color="#fff"/><stop offset="1" stop-color="#fff" stop-opacity=".7"/></linearGradient><linearGradient id="e" x1="-nan" x2="-nan" y1="-nan" y2="-nan" gradientUnits="userSpaceOnUse"><stop stop-color="#fff"/><stop offset="1" stop-color="#fff" stop-opacity=".7"/></linearGradient><clipPath id="a"><path fill="#fff" d="M7 3h25.85v33.88H7z"/></clipPath></defs></svg>
