<svg xmlns="http://www.w3.org/2000/svg" width="40" height="40" fill="none" viewBox="0 0 40 40"><g clip-path="url(#a)"><path fill="url(#b)" d="M31.49 28.23H4.78c-.43 0-.78-.35-.78-.78V7.78c0-.43.35-.78.78-.78h26.71c.43 0 .78.35.78.78v19.67c0 .43-.35.78-.78.78z"/><path fill="url(#c)" d="M35.62 12.16H10.57c-.58 0-1.06.47-1.06 1.06v18.36c0 .58.47 1.06 1.06 1.06h25.05c.58 0 1.06-.47 1.06-1.06V13.22c0-.59-.48-1.06-1.06-1.06zm-6.84 5.93H12.7v-3h16.07v3h.01zm5.24 0h-3.05v-3h3.05v3z"/></g><defs><linearGradient id="b" x1="3.185" x2="33.087" y1="8.982" y2="26.245" gradientUnits="userSpaceOnUse"><stop stop-color="#fff" stop-opacity=".4"/><stop offset="1" stop-color="#fff" stop-opacity="0"/></linearGradient><linearGradient id="c" x1="23.094" x2="23.094" y1="32.632" y2="12.159" gradientUnits="userSpaceOnUse"><stop stop-color="#fff"/><stop offset="1" stop-color="#fff" stop-opacity=".7"/></linearGradient><clipPath id="a"><path fill="#fff" d="M4 7h32.68v25.63H4z"/></clipPath></defs></svg>
